<svg width="133" height="153" viewBox="0 0 133 153" fill="none" xmlns="http://www.w3.org/2000/svg">
<path d="M86.7797 145.066C45.7279 166.605 27.6401 132.859 23.7277 113.294C17.9305 121.387 0.384956 140.191 -23.4198 150.66C-45.5952 160.413 -50.7559 123.186 -50.6499 99.3353C-52.273 106.296 -60.186 115.767 -83.712 119.817C-121.223 126.275 -118.095 43.956 -90.9605 24.9647C-69.2529 9.77164 -56.4873 35.8996 -52.818 50.8628C-46.9967 33.5698 -28.9037 -0.552371 -3.10191 1.30274C22.6999 3.15785 17.3887 32.4755 11.508 46.9024C24.8919 31.4855 56.7546 3.77322 77.1342 16.2587C96.525 28.1383 73.806 53.5481 58.1054 66.4558C65.1539 61.6666 82.0301 55.7986 109.05 60.6527C147.443 67.55 138.095 118.143 86.7797 145.066Z" fill="#F2F4F1" stroke="#19B000" strokeWidth="0.692511"/>
</svg>
