<svg width="221" height="25" viewBox="0 0 221 25" fill="none" xmlns="http://www.w3.org/2000/svg">
<path d="M22.8294 1.71826H3.45605V7.41629H13.7695L0.834961 20.3508L4.4817 24.0545L17.7011 10.8351V21.6614H22.8294V1.71826Z" fill="#19B000"/>
<path d="M44.9398 1.14795H35.5381V23.9401H44.9398C50.182 23.9401 53.6578 21.9458 55.3102 18.413C56.108 16.8175 56.3929 14.8802 56.3929 12.544C56.3929 10.2078 56.051 8.27049 55.3102 6.67504C53.7148 3.14226 50.182 1.14795 44.9398 1.14795ZM50.4099 16.6466C49.4413 18.6979 47.5039 19.8375 44.1991 19.8375H40.5524V5.25053H44.1991C47.5039 5.25053 49.4983 6.33316 50.4099 8.44143C50.9228 9.52406 51.1507 10.7776 51.1507 12.544C51.1507 14.3104 50.9228 15.564 50.4099 16.6466Z" fill="#19B000"/>
<path d="M60.7217 23.9401H75.9354V19.9515H65.7359V14.3104H75.8784V10.4357H65.7359V5.13657H75.9354V1.14795H60.7217V23.9401Z" fill="#19B000"/>
<path d="M91.379 10.4329C88.5299 9.69219 85.8519 9.29333 85.1681 7.81184C85.0541 7.46996 84.9972 7.18506 84.9972 6.7862C84.9972 6.38734 85.0541 6.10243 85.2251 5.76055C85.6809 4.73491 86.9915 4.1651 88.7009 4.1651C90.5242 4.1651 91.7208 4.79189 92.2906 5.93149C92.5755 6.5013 92.6895 7.18506 92.6895 7.98278H97.8177C97.8177 6.67224 97.5898 5.64659 97.1909 4.67793C95.9374 2.05683 92.9744 0.632324 88.9288 0.632324C84.7692 0.632324 81.6353 2.17079 80.4957 4.67793C80.0969 5.53263 79.8689 6.38734 79.8689 7.41298C79.8689 8.43863 80.0969 9.23635 80.3818 9.9771C81.3504 12.0854 83.7436 13.111 86.5356 13.8518C89.4416 14.6495 92.3476 15.1053 93.1453 16.8147C93.3163 17.1566 93.4302 17.4985 93.4302 18.0113C93.4302 18.4102 93.3163 18.809 93.1453 19.2649C92.6325 20.3475 91.208 20.9173 89.2707 20.9173C87.1624 20.9173 85.8519 20.2336 85.2251 18.98C84.9402 18.4102 84.8832 17.6694 84.8832 16.8717H79.4131C79.4701 18.1823 79.641 19.3219 80.0969 20.3475C81.3504 22.9686 84.3704 24.621 89.0997 24.621C93.6012 24.621 96.963 23.1395 98.2736 20.4045C98.6724 19.5498 98.9004 18.5811 98.9004 17.4415C98.9004 16.3589 98.6724 15.4472 98.3875 14.6495C97.1909 12.1993 94.4559 11.2307 91.379 10.4329Z" fill="#19B000"/>
<path d="M107.788 1.14795H102.831V23.9401H107.788V1.14795Z" fill="#19B000"/>
<path d="M124.027 15.1646H129.896C129.839 16.1902 129.668 16.874 129.383 17.6147C128.528 19.4381 126.648 20.3498 124.027 20.3498C121.292 20.3498 119.297 19.3242 118.329 17.2729C117.759 16.0193 117.531 14.7087 117.531 12.5435C117.531 10.3782 117.759 9.01072 118.329 7.81413C119.297 5.76284 121.178 4.7372 123.913 4.7372C125.622 4.7372 127.104 5.13606 128.072 6.04774C128.927 6.73151 129.383 7.75715 129.554 9.01072H134.682C134.454 6.61755 133.428 4.56626 131.776 3.08477C129.896 1.43234 127.218 0.577637 123.97 0.577637C118.728 0.577637 115.195 2.68591 113.371 6.44661C112.574 8.09903 112.175 10.0933 112.175 12.5435C112.175 14.9936 112.574 16.988 113.371 18.6404C115.138 22.3441 118.728 24.5094 123.856 24.5094C128.642 24.5094 131.947 22.686 133.656 19.0962C134.511 17.2729 134.853 15.2216 134.853 13.0563V11.5179H124.027V15.1646Z" fill="#19B000"/>
<path d="M154.795 16.8175L144.311 1.14795H139.183V23.9401H144.083V8.32747L154.51 23.9401H159.639V1.14795H154.795V16.8175Z" fill="#19B000"/>
<path d="M187.106 18.9253C186.08 19.78 184.656 20.2928 182.89 20.2928C180.325 20.2928 178.445 19.2672 177.476 17.2729C176.907 16.0763 176.679 14.5948 176.679 12.5435C176.679 10.4922 176.907 9.0677 177.476 7.87111C178.388 5.93378 180.155 4.79418 182.89 4.79418C184.656 4.79418 185.967 5.25002 186.992 6.10472C187.961 6.95943 188.474 8.09903 188.531 9.6375H193.83C193.716 7.01641 192.747 4.79418 190.867 3.19873C188.929 1.5463 186.251 0.577637 183.06 0.577637C177.875 0.577637 174.286 2.74289 172.633 6.38963C171.835 8.15601 171.437 10.1503 171.437 12.5435C171.437 14.9367 171.835 16.931 172.633 18.6974C174.4 22.4011 177.989 24.5094 183.117 24.5094C186.308 24.5094 189.157 23.5977 191.038 21.8883C192.804 20.3498 193.887 18.1845 193.944 15.5635H188.645C188.588 17.0449 188.018 18.1276 187.106 18.9253Z" fill="#19B000"/>
<path d="M219.525 6.33265C217.815 2.74289 214.282 0.577637 209.154 0.577637C203.969 0.577637 200.379 2.74289 198.727 6.33265C197.929 8.09903 197.53 10.2073 197.53 12.5435C197.53 14.8797 197.929 16.988 198.784 18.7543C200.493 22.4011 204.026 24.5094 209.154 24.5094C214.339 24.5094 217.815 22.4011 219.582 18.7543C220.436 16.988 220.835 14.8797 220.835 12.5435C220.835 10.2073 220.322 8.09903 219.525 6.33265ZM214.624 17.0449C213.713 19.0392 211.946 20.1789 209.097 20.1789C206.248 20.1789 204.425 18.9823 203.57 17.0449C203 15.7914 202.772 14.4238 202.772 12.4865C202.772 10.5492 203 9.18166 203.57 7.92809C204.482 5.99076 206.248 4.79418 209.097 4.79418C211.946 4.79418 213.77 5.99076 214.624 7.92809C215.251 9.18166 215.422 10.5492 215.422 12.4865C215.422 14.4238 215.194 15.8484 214.624 17.0449Z" fill="#19B000"/>
</svg>
