<svg width="120" height="120" viewBox="0 0 120 120" fill="none" xmlns="http://www.w3.org/2000/svg">
<mask id="mask0_814_309" style="mask-type:alpha" maskUnits="userSpaceOnUse" x="0" y="0" width="120" height="120">
<rect width="120" height="120" fill="#19B000"/>
</mask>
<g mask="url(#mask0_814_309)">
<path d="M48.1755 13.0646L75.8215 10.3C77.8828 9.94276 83.5331 9.61198 89.6445 11.1465C95.756 12.6809 120.759 18.0695 132.496 20.572C134.776 21.1827 139.215 24.1303 138.732 31.0345C138.36 36.3434 138.162 56.984 138.075 73.3106M113.52 100.858C115.322 100.051 117.917 98.9022 120.671 97.692M134.636 91.5536C137.237 89.9343 137.992 87.4854 138.025 86.3265C138.027 85.5566 138.029 84.7443 138.031 83.895M134.636 91.5536C134.237 91.802 133.795 92.0308 133.305 92.2325C130.95 93.2025 125.559 95.5443 120.671 97.692M134.636 91.5536C135.997 91.3761 137.793 91.3702 139.667 91.7209M149.466 102.106C149.205 99.6944 148.452 97.7956 147.398 96.3121M133.305 94.9749C134.385 94.5528 135.794 94.1858 137.297 94.0691M146.747 101.532C146.545 100.32 146.22 99.2894 145.799 98.4159M138.047 79.415C138.041 80.9935 138.035 82.4947 138.031 83.895M138.047 79.415C138.803 81.4447 140.753 85.6286 143.174 88.2228M138.047 79.415C138.052 78.1992 138.057 76.9375 138.063 75.6407M147.398 96.3121C146.693 95.3199 145.854 94.5135 144.937 93.8634M147.398 96.3121C147.642 95.0323 147.453 92.043 144.937 89.7946M138.031 83.895C138.19 84.8888 139.152 87.3325 141.715 90.0134M144.937 93.8634C144.069 93.2482 143.131 92.773 142.172 92.4129M144.937 93.8634C144.913 93.1125 144.014 92.1357 143.359 91.5536M144.634 96.6271C143.754 97.1489 142.031 98.5839 142.172 100.149M144.634 96.6271C145.073 97.1322 145.466 97.7247 145.799 98.4159M144.634 96.6271C143.384 95.1901 141.76 94.4598 140.077 94.1759M145.799 98.4159C145.178 98.8136 144.037 99.8589 144.437 100.858M137.297 94.0691C136.423 94.9383 134.88 97.0947 135.696 98.7672M137.297 94.0691C138.207 93.9985 139.151 94.0197 140.077 94.1759M140.077 94.1759C138.908 95.0996 136.794 97.4054 137.687 99.2394M139.667 91.7209C140.333 91.3622 141.674 90.5186 141.715 90.0134M139.667 91.7209C140.497 91.8762 141.343 92.1015 142.172 92.4129M141.715 90.0134C142.113 90.43 142.55 90.8523 143.028 91.2758C143.126 91.3524 143.238 91.4463 143.359 91.5536M142.172 92.4129C142.548 92.2191 143.313 91.7759 143.359 91.5536M143.174 88.2228C143.583 88.6604 144.005 89.0529 144.437 89.382C144.613 89.5163 144.779 89.654 144.937 89.7946M143.174 88.2228C144.947 85.6314 146.406 79.4871 138.063 75.6407M138.063 75.6407C138.067 74.8755 138.071 74.0981 138.075 73.3106M138.075 73.3106C138.075 73.455 151.848 78.7315 144.937 89.7946M120.671 97.692V108.809" stroke="#19B000" stroke-width="3"/>
<path d="M26.3877 13.9215C27.297 13.7965 28.1542 13.8216 28.823 13.9215C50.9183 18.8026 96.504 28.7823 102.085 29.6522C107.666 30.5221 108.428 35.5438 108.112 37.946L107.614 100.15C106.786 103.576 104.86 105.405 102.965 106.308M26.3877 13.9215C23.8763 14.2669 20.9671 15.7572 20.5292 19.9761L19.7837 83.5619C19.6324 85.5349 20.6756 89.7855 26.0584 91.0039C27.2546 91.2746 30.4421 91.9788 34.92 92.9635M26.3877 13.9215L37.8594 11.6823C38.8375 11.558 41.164 11.3839 42.646 11.6823C44.128 11.9807 88.0879 21.3482 109.883 25.9947C111.235 26.6057 113.473 28.2852 114.533 31.0345M102.965 106.308C101.59 106.962 100.232 107.128 99.3203 107.061C83.7387 103.657 56.5456 97.7116 39.8814 94.0535M102.965 106.308C105.673 105.135 111.499 102.473 113.143 101.207C114.787 99.9412 115.322 96.2884 115.384 94.6203L115.083 35.1814C115.228 33.6006 114.99 32.2184 114.533 31.0345M102.965 106.308V118.119L39.8814 102.914V97.3849M39.8814 94.0535V97.3849M39.8814 94.0535C38.8433 93.8256 37.846 93.6066 36.895 93.3976M103.467 118.119L133.175 102.229V98.084M133.175 92.3695V98.084M39.8814 97.3849L34.5112 99.7716M15 108.443L99.9659 130.56M15 108.443V138.854L99.9659 164M15 108.443L32.4015 100.709M99.9659 130.56L150.465 102.229M99.9659 130.56V164M150.465 102.229L133.175 98.084M150.465 102.229V131.942L99.9659 164M114.533 31.0345L136.642 24.123M34.92 92.9635C33.9984 94.5854 32.2043 98.4052 32.4015 100.709M34.92 92.9635C35.5532 93.1027 36.2122 93.2476 36.895 93.3976M32.4015 100.709L34.5112 99.7716M36.895 93.3976C36.0899 94.7082 34.4861 97.8177 34.5112 99.7716M122.819 122.21V139.267L146.937 124.975V108.387L124.632 121.171L122.819 122.21ZM122.819 143.895L126.245 141.618V144.103L122.819 146.366V143.895ZM129.022 139.972L132.448 137.696V140.18L129.022 142.444V139.972ZM134.789 136.28L137.144 134.711V136.558L134.789 138.114V136.28Z" stroke="#19B000" stroke-width="3"/>
<path d="M97.3573 90.4734C97.1317 96.6291 93.043 97.0575 91.0268 96.5023C74.369 92.8364 39.9896 85.2039 35.7348 84.0007C33.9129 83.4856 32.6504 82.342 31.7967 81.0326M97.3573 90.4734C97.5829 84.3177 97.4513 57.4979 97.3573 44.8575C97.3797 43.0562 96.4214 39.152 92.4091 37.946C88.5013 36.7714 54.7801 30.0946 37.1171 26.6502M97.3573 90.4734C80.5464 86.6051 45.9442 78.7013 42.0232 78.0327C40.3814 77.7527 39.2547 77.0122 38.4994 76.1309M37.1171 26.6502C36.6445 26.558 36.1835 26.4682 35.7348 26.3808C33.8917 26.2118 30.2056 26.6295 30.2056 29.6522V76.0014C30.2457 77.2395 30.6566 79.2839 31.7967 81.0326M37.1171 26.6502V72.5035C37.118 73.4129 37.4507 74.9075 38.4994 76.1309M31.7967 81.0326C32.1651 80.8054 36.4186 77.6702 38.4994 76.1309" stroke="#19B000" stroke-width="3"/>
<ellipse cx="60.9695" cy="51.8126" rx="1.58965" ry="2.7646" transform="rotate(-1.61232 60.9695 51.8126)" fill="#19B000"/>
<path d="M75.1613 52.2624L71.7434 54.505L75.1613 57.3854" stroke="#19B000" stroke-width="3" stroke-linecap="round" stroke-linejoin="round"/>
<path d="M60.259 60.3937C60.6376 61.9512 62.2077 65.1591 65.4594 65.5309C69.5239 65.9957 71.5478 65.5309 73.4525 61.7613" stroke="#19B000" stroke-width="3" stroke-linecap="round"/>
</g>
</svg>
