<svg width="221" height="25" viewBox="0 0 221 25" fill="none" xmlns="http://www.w3.org/2000/svg">
<path d="M22.1926 1.83008H2.81931V7.52811H13.1327L0.198212 20.4626L3.84495 24.1664L17.0644 10.9469V21.7732H22.1926V1.83008Z" fill="#19B000"/>
<path d="M44.3031 1.25977H34.9013V24.0519H44.3031C49.5453 24.0519 53.0211 22.0576 54.6735 18.5248C55.4712 16.9294 55.7561 14.992 55.7561 12.6558C55.7561 10.3196 55.4142 8.3823 54.6735 6.78686C53.0781 3.25408 49.5453 1.25977 44.3031 1.25977ZM49.7732 16.7584C48.8045 18.8097 46.8672 19.9493 43.5623 19.9493H39.9156V5.36235H43.5623C46.8672 5.36235 48.8615 6.44497 49.7732 8.55325C50.286 9.63587 50.5139 10.8894 50.5139 12.6558C50.5139 14.4222 50.286 15.6758 49.7732 16.7584Z" fill="#19B000"/>
<path d="M60.0849 24.0519H75.2987V20.0633H65.0992V14.4222H75.2417V10.5476H65.0992V5.24839H75.2987V1.25977H60.0849V24.0519Z" fill="#19B000"/>
<path d="M90.7422 10.5448C87.8932 9.80401 85.2151 9.40515 84.5314 7.92366C84.4174 7.58178 84.3604 7.29688 84.3604 6.89801C84.3604 6.49915 84.4174 6.21425 84.5883 5.87237C85.0442 4.84672 86.3547 4.27692 88.0641 4.27692C89.8875 4.27692 91.0841 4.9037 91.6539 6.04331C91.9388 6.61311 92.0527 7.29688 92.0527 8.0946H97.181C97.181 6.78405 96.9531 5.75841 96.5542 4.78974C95.3006 2.16865 92.3377 0.744141 88.2921 0.744141C84.1325 0.744141 80.9986 2.28261 79.859 4.78974C79.4601 5.64445 79.2322 6.49915 79.2322 7.5248C79.2322 8.55044 79.4601 9.34817 79.745 10.0889C80.7137 12.1972 83.1068 13.2228 85.8989 13.9636C88.8049 14.7613 91.7109 15.2171 92.5086 16.9265C92.6795 17.2684 92.7935 17.6103 92.7935 18.1231C92.7935 18.522 92.6795 18.9209 92.5086 19.3767C91.9958 20.4593 90.5713 21.0291 88.6339 21.0291C86.5257 21.0291 85.2151 20.3454 84.5883 19.0918C84.3034 18.522 84.2464 17.7813 84.2464 16.9835H78.7763C78.8333 18.2941 79.0043 19.4337 79.4601 20.4593C80.7137 23.0804 83.7336 24.7329 88.463 24.7329C92.9644 24.7329 96.3263 23.2514 97.6368 20.5163C98.0357 19.6616 98.2636 18.6929 98.2636 17.5533C98.2636 16.4707 98.0357 15.559 97.7508 14.7613C96.5542 12.3111 93.8191 11.3425 90.7422 10.5448Z" fill="#19B000"/>
<path d="M107.152 1.25977H102.194V24.0519H107.152V1.25977Z" fill="#19B000"/>
<path d="M123.39 15.2764H129.259C129.202 16.3021 129.031 16.9858 128.746 17.7266C127.891 19.5499 126.011 20.4616 123.39 20.4616C120.655 20.4616 118.661 19.436 117.692 17.3847C117.122 16.1311 116.894 14.8206 116.894 12.6553C116.894 10.4901 117.122 9.12254 117.692 7.92595C118.661 5.87466 120.541 4.84901 123.276 4.84901C124.985 4.84901 126.467 5.24788 127.436 6.15956C128.29 6.84332 128.746 7.86897 128.917 9.12254H134.045C133.817 6.72936 132.792 4.67807 131.139 3.19659C129.259 1.54416 126.581 0.689453 123.333 0.689453C118.091 0.689453 114.558 2.79772 112.735 6.55842C111.937 8.21085 111.538 10.2052 111.538 12.6553C111.538 15.1055 111.937 17.0998 112.735 18.7522C114.501 22.4559 118.091 24.6212 123.219 24.6212C128.005 24.6212 131.31 22.7978 133.02 19.208C133.874 17.3847 134.216 15.3334 134.216 13.1681V11.6297H123.39V15.2764Z" fill="#19B000"/>
<path d="M154.158 16.9294L143.674 1.25977H138.546V24.0519H143.446V8.43929L153.874 24.0519H159.002V1.25977H154.158V16.9294Z" fill="#19B000"/>
<path d="M186.469 19.0371C185.444 19.8918 184.019 20.4046 182.253 20.4046C179.689 20.4046 177.808 19.379 176.84 17.3847C176.27 16.1881 176.042 14.7066 176.042 12.6553C176.042 10.604 176.27 9.17952 176.84 7.98293C177.751 6.0456 179.518 4.90599 182.253 4.90599C184.019 4.90599 185.33 5.36184 186.355 6.21654C187.324 7.07125 187.837 8.21085 187.894 9.74932H193.193C193.079 7.12823 192.11 4.90599 190.23 3.31055C188.293 1.65812 185.615 0.689453 182.424 0.689453C177.239 0.689453 173.649 2.8547 171.996 6.50144C171.199 8.26783 170.8 10.2621 170.8 12.6553C170.8 15.0485 171.199 17.0428 171.996 18.8092C173.763 22.5129 177.353 24.6212 182.481 24.6212C185.672 24.6212 188.521 23.7095 190.401 22.0001C192.167 20.4616 193.25 18.2964 193.307 15.6753H188.008C187.951 17.1568 187.381 18.2394 186.469 19.0371Z" fill="#19B000"/>
<path d="M218.888 6.44446C217.179 2.8547 213.646 0.689453 208.518 0.689453C203.332 0.689453 199.743 2.8547 198.09 6.44446C197.292 8.21085 196.894 10.3191 196.894 12.6553C196.894 14.9915 197.292 17.0998 198.147 18.8662C199.856 22.5129 203.389 24.6212 208.518 24.6212C213.703 24.6212 217.179 22.5129 218.945 18.8662C219.8 17.0998 220.198 14.9915 220.198 12.6553C220.198 10.3191 219.686 8.21085 218.888 6.44446ZM213.988 17.1568C213.076 19.1511 211.31 20.2907 208.461 20.2907C205.612 20.2907 203.788 19.0941 202.933 17.1568C202.364 15.9032 202.136 14.5357 202.136 12.5983C202.136 10.661 202.364 9.29348 202.933 8.03991C203.845 6.10258 205.612 4.90599 208.461 4.90599C211.31 4.90599 213.133 6.10258 213.988 8.03991C214.614 9.29348 214.785 10.661 214.785 12.5983C214.785 14.5357 214.557 15.9602 213.988 17.1568Z" fill="#19B000"/>
</svg>
